<?xml version="1.0" encoding="UTF-8" standalone="no"?>
<!-- Created with Inkscape (http://www.inkscape.org/) -->

<svg
   xmlns:dc="http://purl.org/dc/elements/1.1/"
   xmlns:cc="http://creativecommons.org/ns#"
   xmlns:rdf="http://www.w3.org/1999/02/22-rdf-syntax-ns#"
   xmlns:svg="http://www.w3.org/2000/svg"
   xmlns="http://www.w3.org/2000/svg"
   xmlns:sodipodi="http://sodipodi.sourceforge.net/DTD/sodipodi-0.dtd"
   xmlns:inkscape="http://www.inkscape.org/namespaces/inkscape"
   width="320"
   height="90"
   id="svg15190"
   version="1.1"
   inkscape:version="0.48.4 r9939"
   sodipodi:docname="moustache.svg"
   inkscape:export-filename="/var/www/html/moustache.png"
   inkscape:export-xdpi="90"
   inkscape:export-ydpi="90">
  <defs
     id="defs15192" />
  <sodipodi:namedview
     id="base"
     pagecolor="#00a99d"
     bordercolor="#666666"
     borderopacity="1.0"
     inkscape:pageopacity="1"
     inkscape:pageshadow="2"
     inkscape:zoom="0.35"
     inkscape:cx="520.05894"
     inkscape:cy="-29.104328"
     inkscape:document-units="px"
     inkscape:current-layer="layer1"
     showgrid="false"
     inkscape:window-width="1366"
     inkscape:window-height="744"
     inkscape:window-x="0"
     inkscape:window-y="24"
     inkscape:window-maximized="1" />
  <metadata
     id="metadata15195">
    <rdf:RDF>
      <cc:Work
         rdf:about="">
        <dc:format>image/svg+xml</dc:format>
        <dc:type
           rdf:resource="http://purl.org/dc/dcmitype/StillImage" />
        <dc:title></dc:title>
      </cc:Work>
    </rdf:RDF>
  </metadata>
  <g
     inkscape:label="Layer 1"
     inkscape:groupmode="layer"
     id="layer1"
     transform="translate(0,-962.36218)">
    <g
       id="g7568"
       transform="matrix(1.25,0,0,-1.25,165.59798,995.04536)">
      <path
         inkscape:connector-curvature="0"
         d="m 0,0 c -4.146,23.604 -29.583,27.586 -54.641,8.905 -37.939,-28.28 -59.05,-34.025 -75.035,-5.597 0,0 5.794,-45.342 48.796,-47.909 C -51.814,-46.336 5.256,-29.938 0,0"
         style="fill:#231f20;fill-opacity:1;fill-rule:nonzero;stroke:none"
         id="path7570" />
    </g>
    <g
       id="g7572"
       transform="matrix(1.25,0,0,-1.25,152.68898,995.04536)">
      <path
         inkscape:connector-curvature="0"
         d="m 0,0 c 4.144,23.604 29.582,27.586 54.641,8.905 37.939,-28.28 59.05,-34.025 75.034,-5.597 0,0 -5.793,-45.342 -48.795,-47.909 C 51.814,-46.336 -5.256,-29.938 0,0"
         style="fill:#231f20;fill-opacity:1;fill-rule:nonzero;stroke:none"
         id="path7574" />
    </g>
    <g
       id="g7638"
       transform="matrix(1.25,0,0,-1.25,136.57823,990.09298)">
      <path
         inkscape:connector-curvature="0"
         d="m 0,0 c -3.216,0.368 -6.396,0.116 -9.628,-0.645 -3.217,-0.757 -6.403,-2 -9.528,-3.492 -6.261,-2.999 -12.269,-6.93 -18.516,-10.555 -6.233,-3.617 -12.81,-7.051 -19.972,-8.704 -3.564,-0.824 -7.244,-1.162 -10.867,-0.897 -3.625,0.254 -7.17,1.111 -10.51,2.411 3.434,-1.032 6.996,-1.595 10.538,-1.561 3.544,0.021 7.047,0.63 10.395,1.687 6.723,2.124 12.758,5.9 18.595,9.932 5.855,4.041 11.542,8.463 17.954,12.194 3.207,1.854 6.614,3.524 10.302,4.711 3.659,1.19 7.695,1.842 11.634,1.703 L 0.508,6.78 C 2.386,6.715 3.854,5.139 3.788,3.261 3.722,1.383 2.146,-0.086 0.268,-0.02 0.18,-0.017 0.086,-0.009 0,0"
         style="fill:#242426;fill-opacity:1;fill-rule:nonzero;stroke:none"
         id="path7640" />
    </g>
    <g
       id="g7642"
       transform="matrix(1.25,0,0,-1.25,181.70873,990.09298)">
      <path
         inkscape:connector-curvature="0"
         d="m 0,0 c 3.216,0.368 6.396,0.116 9.628,-0.645 3.217,-0.757 6.403,-2 9.528,-3.492 6.26,-2.999 12.268,-6.93 18.516,-10.555 6.232,-3.617 12.81,-7.051 19.972,-8.704 3.563,-0.824 7.243,-1.162 10.867,-0.897 3.624,0.254 7.169,1.111 10.509,2.411 -3.433,-1.032 -6.995,-1.595 -10.538,-1.561 -3.543,0.021 -7.046,0.63 -10.394,1.687 -6.723,2.124 -12.758,5.9 -18.596,9.932 C 33.637,-7.783 27.951,-3.361 21.539,0.37 18.332,2.224 14.924,3.894 11.236,5.081 7.578,6.271 3.542,6.923 -0.398,6.784 L -0.508,6.78 C -2.386,6.715 -3.854,5.139 -3.788,3.261 -3.723,1.383 -2.146,-0.086 -0.268,-0.02 -0.18,-0.017 -0.086,-0.009 0,0"
         style="fill:#242426;fill-opacity:1;fill-rule:nonzero;stroke:none"
         id="path7644" />
    </g>
  </g>
</svg>
