<?xml version="1.0" encoding="UTF-8" standalone="no"?><!-- Created with Inkscape (http://www.inkscape.org/) --><svg xmlns:dc="http://purl.org/dc/elements/1.1/" xmlns:cc="http://creativecommons.org/ns#" xmlns:rdf="http://www.w3.org/1999/02/22-rdf-syntax-ns#" xmlns:svg="http://www.w3.org/2000/svg" xmlns="http://www.w3.org/2000/svg" xmlns:sodipodi="http://sodipodi.sourceforge.net/DTD/sodipodi-0.dtd" xmlns:inkscape="http://www.inkscape.org/namespaces/inkscape" width="320" height="80" id="svg15323" version="1.1" inkscape:version="0.48.4 r9939" sodipodi:docname="New document 11"><defs id="defs15325"/><sodipodi:namedview id="base" pagecolor="#ffffff" bordercolor="#666666" borderopacity="1.0" inkscape:pageopacity="0.0" inkscape:pageshadow="2" inkscape:zoom="1.4" inkscape:cx="247.89662" inkscape:cy="67.462376" inkscape:document-units="px" inkscape:current-layer="layer1" showgrid="false" inkscape:window-width="1366" inkscape:window-height="744" inkscape:window-x="0" inkscape:window-y="24" inkscape:window-maximized="1"/><metadata id="metadata15328"><rdf:RDF><cc:Work rdf:about=""><dc:format>image/svg+xml</dc:format><dc:type rdf:resource="http://purl.org/dc/dcmitype/StillImage"/><dc:title></dc:title></cc:Work></rdf:RDF></metadata><g inkscape:label="Layer 1" inkscape:groupmode="layer" id="layer1" transform="translate(0,-972.3622)"><g id="g7646" transform="matrix(1.25,0,0,-1.25,68.491679,1048.6621)"><path inkscape:connector-curvature="0" d="M 0,0 -49.575,0 -36.021,16.01 -49.575,32.322 0,32.322 0,0 z" style="fill:#feb000;fill-opacity:1;fill-rule:nonzero;stroke:none" id="path7648"/></g><g id="g7650" transform="matrix(1.25,0,0,-1.25,248.64368,1048.6621)"><path inkscape:connector-curvature="0" d="M 0,0 49.581,0 36.029,16.01 49.581,32.322 0,32.322 0,0 z" style="fill:#feb000;fill-opacity:1;fill-rule:nonzero;stroke:none" id="path7652"/></g><g id="g7662" transform="matrix(1.25,0,0,-1.25,268.51793,1043.479)"><path inkscape:connector-curvature="0" d="m 0,0 c -68.542,21.924 -106.804,21.924 -175.338,0 -2.736,10.285 -4.103,25.602 -6.832,35.885 73.312,23.455 115.684,23.455 188.997,0 C 4.095,25.602 2.725,10.285 0,0" style="fill:#febe14;fill-opacity:1;fill-rule:nonzero;stroke:none" id="path7664"/></g></g></svg>
